STARTFONT 2.1
FONT -Kochi-Fixed-Medium-R-Normal--16-150-75-75-M-160-ISO10646-1
SIZE 15 75 75
FONTBOUNDINGBOX 7 16 9 -2
COMMENT "Generated by pfaedit, http://pfaedit.sourceforge.net"
STARTPROPERTIES 25
FONT_NAME "Kochi-Common"
FONT_ASCENT 14
FONT_DESCENT 2
UNDERLINE_POSITION 0
UNDERLINE_THICKNESS 0
QUAD_WIDTH 16
FONTNAME_REGISTRY ""
FAMILY_NAME "Fixed"
FOUNDRY "Kochi"
WEIGHT_NAME "Medium"
SETWIDTH_NAME "Normal"
SLANT "R"
ADD_STYLE_NAME ""
PIXEL_SIZE 16
POINT_SIZE 150
RESOLUTION_X 75
RESOLUTION_Y 75
RESOLUTION 75
SPACING "M"
AVERAGE_WIDTH 160
CHARSET_REGISTRY "ISO10646"
CHARSET_ENCODING "1"
FULL_NAME "Kochi Common"
COPYRIGHT "public domain"
ENDPROPERTIES
CHARS 1
STARTCHAR uniFF08
ENCODING 65288
SWIDTH 1000 0
DWIDTH 16 0
BBX 4 16 12 -2
BITMAP
10
20
20
40
40
40
80
80
80
80
40
40
40
20
20
10
ENDCHAR
ENDFONT
