STARTFONT 2.1
FONT -PfaEdit-Kochi Mincho-Book-R-Normal--20-190-75-75-P-198-ISO10646-1
SIZE 19 75 75
FONTBOUNDINGBOX 20 20 0 -3
COMMENT "Generated by pfaedit, http://pfaedit.sourceforge.net"
STARTPROPERTIES 28
FONT_NAME "Kochi-Mincho"
FONT_ASCENT 17
FONT_DESCENT 3
UNDERLINE_POSITION 0
UNDERLINE_THICKNESS 0
QUAD_WIDTH 20
X_HEIGHT 9
CAP_HEIGHT 13
DEFAULT_CHAR 0
FONTNAME_REGISTRY ""
FAMILY_NAME "Kochi Mincho"
FOUNDRY "PfaEdit"
WEIGHT_NAME "Book"
SETWIDTH_NAME "Normal"
SLANT "R"
ADD_STYLE_NAME ""
PIXEL_SIZE 20
POINT_SIZE 190
RESOLUTION_X 75
RESOLUTION_Y 75
RESOLUTION 75
SPACING "P"
AVERAGE_WIDTH 198
CHARSET_REGISTRY "ISO10646"
CHARSET_ENCODING "1"
CHARSET_COLLECTIONS "ASCII ISOLatin1Encoding ISO8859-2 ISO8859-5 ISO8859-9 ISO8859-4 JISX208 Symbol ISO10646-1"
FULL_NAME "Kochi Mincho"
COPYRIGHT "Public Domain"
ENDPROPERTIES
CHARS 2
STARTCHAR uni58D1
ENCODING 22737
SWIDTH 1000 0
DWIDTH 20 0
BBX 19 19 1 -2
BITMAP
040000
078040
245FE0
3FE440
604440
4F0480
204280
362280
490100
108100
2F4280
C94480
090860
0F5040
004100
1FFF80
004000
004040
FFFFE0
ENDCHAR
STARTCHAR uni6F22
ENCODING 28450
SWIDTH 1000 0
DWIDTH 20 0
BBX 19 20 1 -3
BITMAP
403300
202240
13FFE0
102200
002200
810040
41FFE0
290840
290840
09FFC0
110840
100800
31FFC0
A00800
63FFE0
401400
402200
404180
4180E0
460040
ENDCHAR
ENDFONT
